<svg width="26" height="25" viewBox="0 0 26 25" fill="none" xmlns="http://www.w3.org/2000/svg">
<path d="M12.9921 3.12512C18.0652 3.12512 22.2159 7.34387 22.2159 12.5001C22.2159 17.6564 18.0652 21.8751 12.9921 21.8751C7.91898 21.8751 3.76826 17.6564 3.76826 12.5001C3.76826 7.34387 7.91898 3.12512 12.9921 3.12512ZM12.9921 1.56262C7.07346 1.56262 2.23096 6.4845 2.23096 12.5001C2.23096 18.5157 7.07346 23.4376 12.9921 23.4376C18.9107 23.4376 23.7532 18.5157 23.7532 12.5001C23.7532 6.4845 18.9107 1.56262 12.9921 1.56262Z" fill="black"/>
<path d="M19.1417 11.7189H13.7611V6.25012H12.2238V11.7189H6.84326V13.2814H12.2238V18.7501H13.7611V13.2814H19.1417V11.7189Z" fill="black"/>
</svg>
