<svg width="223" height="236" viewBox="0 0 223 236" fill="none" xmlns="http://www.w3.org/2000/svg">
<path d="M213.708 42.48H176.542V18.88C176.542 8.4665 168.208 0 157.958 0H65.0417C54.7918 0 46.4583 8.4665 46.4583 18.88V42.48H9.29167C4.15221 42.48 0 46.6985 0 51.92V61.36C0 62.658 1.04531 63.72 2.32292 63.72H19.8609L27.0329 218.005C27.4975 228.064 35.6858 236 45.5872 236H177.413C187.343 236 195.502 228.094 195.967 218.005L203.139 63.72H220.677C221.955 63.72 223 62.658 223 61.36V51.92C223 46.6985 218.848 42.48 213.708 42.48ZM155.635 42.48H67.3646V21.24H155.635V42.48Z" fill="white"/>
</svg>
