<svg width="90" height="90" viewBox="0 0 120 120" fill="none" xmlns="http://www.w3.org/2000/svg">
<path d="M41.25 90.5H78.75V98H41.25V90.5Z" fill="black"/>
<path d="M48.75 106H71.25V113.5H48.75V106Z" fill="black"/>
<path d="M60.0001 7.5C50.0545 7.5 40.5163 11.4509 33.4836 18.4835C26.451 25.5161 22.5001 35.0544 22.5001 45C22.2465 50.45 23.2905 55.8824 25.5463 60.8501C27.802 65.8179 31.2049 70.1791 35.4751 73.575C39.2251 77.0625 41.2501 79.05 41.2501 82.5H48.7501C48.7501 75.6 44.5876 71.7375 40.5376 68.025C37.0327 65.341 34.2394 61.8385 32.4023 57.8244C30.5652 53.8103 29.7404 49.4069 30.0001 45C30.0001 37.0435 33.1608 29.4129 38.7869 23.7868C44.413 18.1607 52.0436 15 60.0001 15C67.9566 15 75.5873 18.1607 81.2133 23.7868C86.8394 29.4129 90.0001 37.0435 90.0001 45C90.2556 49.4101 89.425 53.8156 87.5812 57.83C85.7375 61.8444 82.9369 65.3451 79.4251 68.025C75.4126 71.775 71.2501 75.525 71.2501 82.5H78.7501C78.7501 79.05 80.7376 77.0625 84.5252 73.5375C88.7924 70.1474 92.1938 65.7926 94.4495 60.8314C96.7052 55.8701 97.7508 50.4442 97.5001 45C97.5001 40.0754 96.5302 35.1991 94.6456 30.6494C92.7611 26.0997 89.9988 21.9657 86.5166 18.4835C83.0345 15.0013 78.9005 12.2391 74.3508 10.3545C69.8011 8.46997 64.9247 7.5 60.0001 7.5Z" fill="black"/>
</svg>
