<svg width="120" height="120" viewBox="0 0 120 120" fill="none" xmlns="http://www.w3.org/2000/svg">
<path d="M60.2999 68.6334C58.5053 68.647 56.7669 69.2612 55.362 70.3779C53.957 71.4947 52.9665 73.0497 52.5484 74.795C52.1303 76.5403 52.3087 78.3754 53.0551 80.0075C53.8015 81.6396 55.0729 82.9748 56.6666 83.8001V93.3334H63.3333V84.1001C65.0544 83.3948 66.4774 82.114 67.3595 80.4765C68.2416 78.8389 68.5281 76.946 68.1701 75.1207C67.8121 73.2954 66.8319 71.6509 65.3966 70.4679C63.9613 69.2848 62.16 68.6364 60.2999 68.6334Z" fill="#88C3FF"/>
<path d="M86.6666 49.9999V35.7332C86.8097 28.5062 84.0843 21.5167 79.0867 16.2942C74.0891 11.0717 67.2263 8.04146 59.9999 7.86658C52.7736 8.04146 45.9107 11.0717 40.9131 16.2942C35.9155 21.5167 33.1901 28.5062 33.3333 35.7332V49.9999H23.3333V106.667C23.3333 108.435 24.0356 110.13 25.2859 111.381C26.5361 112.631 28.2318 113.333 29.9999 113.333H89.9999C91.768 113.333 93.4637 112.631 94.714 111.381C95.9642 110.13 96.6666 108.435 96.6666 106.667V49.9999H86.6666ZM39.9999 35.7332C39.8562 30.274 41.8791 24.9799 45.6266 21.0075C49.3741 17.0351 54.5416 14.7075 59.9999 14.5332C65.4582 14.7075 70.6257 17.0351 74.3732 21.0075C78.1207 24.9799 80.1436 30.274 79.9999 35.7332V49.9999H39.9999V35.7332ZM29.9999 106.667V56.6666H89.9999V106.667H29.9999Z" fill="#88C3FF"/>
</svg>
