<svg width="90" height="90" viewBox="0 0 120 120" fill="none" xmlns="http://www.w3.org/2000/svg">
<path d="M60.2997 68.6333C58.505 68.6469 56.7666 69.261 55.3617 70.3778C53.9568 71.4945 52.9663 73.0496 52.5482 74.7949C52.1301 76.5402 52.3085 78.3753 53.0548 80.0074C53.8012 81.6395 55.0727 82.9747 56.6663 83.8V93.3333H63.333V84.1C65.0541 83.3946 66.4771 82.1139 67.3592 80.4763C68.2413 78.8388 68.5278 76.9458 68.1699 75.1206C67.8119 73.2953 66.8316 71.6508 65.3963 70.4677C63.9611 69.2847 62.1597 68.6363 60.2997 68.6333Z" fill="black"/>
<path d="M86.6663 50V35.7334C86.8095 28.5063 84.0841 21.5168 79.0865 16.2943C74.0889 11.0718 67.226 8.04159 59.9997 7.8667C52.7733 8.04159 45.9105 11.0718 40.9129 16.2943C35.9153 21.5168 33.1898 28.5063 33.333 35.7334V50H23.333V106.667C23.333 108.435 24.0354 110.131 25.2856 111.381C26.5359 112.631 28.2316 113.333 29.9997 113.333H89.9997C91.7678 113.333 93.4635 112.631 94.7137 111.381C95.964 110.131 96.6663 108.435 96.6663 106.667V50H86.6663ZM39.9997 35.7334C39.856 30.2742 41.8789 24.98 45.6264 21.0076C49.3739 17.0353 54.5414 14.7076 59.9997 14.5334C65.458 14.7076 70.6255 17.0353 74.373 21.0076C78.1205 24.98 80.1434 30.2742 79.9997 35.7334V50H39.9997V35.7334ZM29.9997 106.667V56.6667H89.9997V106.667H29.9997Z" fill="black"/>
</svg>
