<svg width="35" height="35" viewBox="0 0 35 35" fill="none" xmlns="http://www.w3.org/2000/svg">
<path d="M22.9688 2.1875C21.4316 2.18715 19.9157 2.54687 18.5426 3.23784C17.1695 3.92881 15.9773 4.93181 15.0617 6.16647C14.146 7.40113 13.5322 8.83312 13.2696 10.3477C13.007 11.8622 13.1028 13.4173 13.5494 14.8881L2.1875 26.25V32.8125H8.75L20.1119 21.4506C21.4658 21.8616 22.8925 21.9759 24.2946 21.7856C25.6967 21.5954 27.0413 21.1051 28.2368 20.3482C29.4323 19.5913 30.4505 18.5855 31.2222 17.3995C31.9938 16.2135 32.5007 14.875 32.7083 13.4754C32.9159 12.0757 32.8193 10.6478 32.4251 9.28883C32.0309 7.92989 31.3483 6.67191 30.424 5.60061C29.4996 4.52932 28.3552 3.66988 27.0686 3.08089C25.7821 2.49189 24.3837 2.18717 22.9688 2.1875ZM22.9688 19.6875C22.2157 19.6871 21.4669 19.5758 20.7463 19.3572L19.4917 18.9766L18.5653 19.903L15.0861 23.3822L13.5778 21.875L12.0312 23.4216L13.5395 24.9298L11.8048 26.6645L10.2966 25.1562L8.75 26.7028L10.2583 28.2111L7.84438 30.625H4.375V27.1556L15.0959 16.4347L16.0234 15.5083L15.6428 14.2537C15.1753 12.7126 15.2057 11.0634 15.7296 9.54053C16.2535 8.01768 17.2443 6.69881 18.561 5.77153C19.8777 4.84425 21.4532 4.35577 23.0636 4.37558C24.6739 4.39539 26.237 4.92248 27.5305 5.88188C28.8239 6.84128 29.782 8.18412 30.2683 9.71939C30.7545 11.2547 30.7443 12.9042 30.2391 14.4333C29.7338 15.9625 28.7592 17.2933 27.4539 18.2366C26.1487 19.1799 24.5792 19.6876 22.9688 19.6875Z" fill="white"/>
<path d="M24.0625 13.125C25.2706 13.125 26.25 12.1456 26.25 10.9375C26.25 9.72938 25.2706 8.75 24.0625 8.75C22.8544 8.75 21.875 9.72938 21.875 10.9375C21.875 12.1456 22.8544 13.125 24.0625 13.125Z" fill="white"/>
</svg>
