<svg width="35" height="35" viewBox="0 0 35 35" fill="none" xmlns="http://www.w3.org/2000/svg">
<path d="M29.3433 26.0996C28.6986 24.5724 27.7629 23.1851 26.5885 22.0151C25.4176 20.8418 24.0306 19.9063 22.504 19.2603C22.4903 19.2534 22.4766 19.25 22.463 19.2432C24.5924 17.7051 25.9766 15.1997 25.9766 12.373C25.9766 7.69043 22.1827 3.89648 17.5001 3.89648C12.8175 3.89648 9.02352 7.69043 9.02352 12.373C9.02352 15.1997 10.4078 17.7051 12.5372 19.2466C12.5235 19.2534 12.5099 19.2568 12.4962 19.2637C10.9649 19.9097 9.59091 20.8359 8.41171 22.0186C7.23835 23.1894 6.30283 24.5765 5.65682 26.103C5.02218 27.5975 4.67991 29.1999 4.64852 30.8232C4.64761 30.8597 4.65401 30.896 4.66734 30.93C4.68067 30.964 4.70067 30.9949 4.72615 31.021C4.75164 31.0471 4.78209 31.0679 4.81572 31.0821C4.84935 31.0962 4.88547 31.1035 4.92196 31.1035H6.97274C7.12313 31.1035 7.24276 30.9839 7.24618 30.8369C7.31454 28.1982 8.37411 25.7271 10.2472 23.854C12.1851 21.916 14.7589 20.8496 17.5001 20.8496C20.2413 20.8496 22.815 21.916 24.753 23.854C26.6261 25.7271 27.6856 28.1982 27.754 30.8369C27.7574 30.9873 27.877 31.1035 28.0274 31.1035H30.0782C30.1147 31.1035 30.1508 31.0962 30.1845 31.0821C30.2181 31.0679 30.2485 31.0471 30.274 31.021C30.2995 30.9949 30.3195 30.964 30.3328 30.93C30.3462 30.896 30.3526 30.8597 30.3516 30.8232C30.3175 29.1895 29.9791 27.6001 29.3433 26.0996ZM17.5001 18.252C15.9312 18.252 14.4547 17.6401 13.3438 16.5293C12.233 15.4185 11.6212 13.9419 11.6212 12.373C11.6212 10.8042 12.233 9.32764 13.3438 8.2168C14.4547 7.10596 15.9312 6.49414 17.5001 6.49414C19.0689 6.49414 20.5455 7.10596 21.6563 8.2168C22.7672 9.32764 23.379 10.8042 23.379 12.373C23.379 13.9419 22.7672 15.4185 21.6563 16.5293C20.5455 17.6401 19.0689 18.252 17.5001 18.252Z" fill="white"/>
</svg>
