<svg width="27" height="28" viewBox="0 0 27 28" fill="none" xmlns="http://www.w3.org/2000/svg">
<path d="M13.5328 4.32045C19.0217 4.32045 23.5126 8.88499 23.5126 14.4639C23.5126 20.0427 19.0217 24.6073 13.5328 24.6073C8.04388 24.6073 3.55295 20.0427 3.55295 14.4639C3.55295 8.88499 8.04388 4.32045 13.5328 4.32045ZM13.5328 2.62988C7.12906 2.62988 1.88965 7.95518 1.88965 14.4639C1.88965 20.9726 7.12906 26.2979 13.5328 26.2979C19.9365 26.2979 25.1759 20.9726 25.1759 14.4639C25.1759 7.95518 19.9365 2.62988 13.5328 2.62988Z" fill="white"/>
<path d="M20.1863 13.6184H14.3648V7.70142H12.7015V13.6184H6.87988V15.309H12.7015V21.226H14.3648V15.309H20.1863V13.6184Z" fill="white"/>
</svg>
