<svg width="30" height="30" viewBox="0 0 30 30" fill="none" xmlns="http://www.w3.org/2000/svg">
<path d="M4.54102 15.709L15.6094 25.3154C15.6943 25.3887 15.8027 25.4297 15.917 25.4297H18.5098C18.7266 25.4297 18.8262 25.1602 18.6621 25.0195L8.40234 16.1133L25.5469 16.1133C25.6758 16.1133 25.7812 16.0078 25.7812 15.8789V14.1211C25.7812 13.9922 25.6758 13.8867 25.5469 13.8867L8.40527 13.8867L18.665 4.98047C18.8291 4.83691 18.7295 4.57031 18.5127 4.57031H15.832C15.7764 4.57031 15.7207 4.59082 15.6797 4.62891L4.54102 14.291C4.43959 14.3792 4.35827 14.4881 4.30255 14.6104C4.24682 14.7328 4.21798 14.8656 4.21798 15C4.21798 15.1344 4.24682 15.2672 4.30255 15.3896C4.35827 15.5119 4.43959 15.6208 4.54102 15.709V15.709Z" fill="#88C3FF"/>
</svg>
