<svg width="224" height="236" viewBox="0 0 224 236" fill="none" xmlns="http://www.w3.org/2000/svg">
<path d="M214.458 42.48H177.292V18.88C177.292 8.4665 168.958 0 158.708 0H65.7917C55.5418 0 47.2083 8.4665 47.2083 18.88V42.48H10.0417C4.90221 42.48 0.75 46.6985 0.75 51.92V61.36C0.75 62.658 1.79531 63.72 3.07292 63.72H20.6109L27.7829 218.005C28.2475 228.064 36.4358 236 46.3372 236H178.163C188.093 236 196.252 228.094 196.717 218.005L203.889 63.72H221.427C222.705 63.72 223.75 62.658 223.75 61.36V51.92C223.75 46.6985 219.598 42.48 214.458 42.48ZM156.385 42.48H68.1146V21.24H156.385V42.48Z" fill="#FF9100"/>
</svg>
