<svg width="26" height="33" viewBox="0 0 26 33" fill="none" xmlns="http://www.w3.org/2000/svg">
<path d="M21.9375 8.25H18.6875V5.67188C18.6875 4.53428 17.9588 3.60938 17.0625 3.60938H8.9375C8.04121 3.60938 7.3125 4.53428 7.3125 5.67188V8.25H4.0625C3.61309 8.25 3.25 8.71084 3.25 9.28125V10.3125C3.25 10.4543 3.34141 10.5703 3.45312 10.5703H4.98672L5.61387 27.4248C5.65449 28.5237 6.37051 29.3906 7.23633 29.3906H18.7637C19.632 29.3906 20.3455 28.527 20.3861 27.4248L21.0133 10.5703H22.5469C22.6586 10.5703 22.75 10.4543 22.75 10.3125V9.28125C22.75 8.71084 22.3869 8.25 21.9375 8.25ZM16.8594 8.25H9.14062V5.92969H16.8594V8.25Z" fill="white"/>
</svg>
