<svg width="120" height="120" viewBox="0 0 120 120" fill="none" xmlns="http://www.w3.org/2000/svg">
<path d="M41.25 90.5H78.75V98H41.25V90.5Z" fill="#88C3FF"/>
<path d="M48.75 106H71.25V113.5H48.75V106Z" fill="#88C3FF"/>
<path d="M60 7.5C50.0544 7.5 40.5161 11.4509 33.4835 18.4835C26.4509 25.5161 22.5 35.0544 22.5 45C22.2464 50.45 23.2904 55.8824 25.5461 60.8501C27.8018 65.8179 31.2048 70.1791 35.475 73.575C39.225 77.0625 41.25 79.05 41.25 82.5H48.75C48.75 75.6 44.5875 71.7375 40.5375 68.025C37.0326 65.341 34.2393 61.8385 32.4022 57.8244C30.5651 53.8103 29.7403 49.4069 30 45C30 37.0435 33.1607 29.4129 38.7868 23.7868C44.4129 18.1607 52.0435 15 60 15C67.9565 15 75.5871 18.1607 81.2132 23.7868C86.8393 29.4129 90 37.0435 90 45C90.2554 49.4101 89.4248 53.8156 87.5811 57.83C85.7374 61.8444 82.9368 65.3451 79.425 68.025C75.4125 71.775 71.25 75.525 71.25 82.5H78.75C78.75 79.05 80.7375 77.0625 84.525 73.5375C88.7923 70.1474 92.1937 65.7926 94.4494 60.8314C96.7051 55.8701 97.7507 50.4442 97.5 45C97.5 40.0754 96.5301 35.1991 94.6455 30.6494C92.761 26.0997 89.9987 21.9657 86.5165 18.4835C83.0343 15.0013 78.9004 12.2391 74.3506 10.3545C69.8009 8.46997 64.9246 7.5 60 7.5Z" fill="#88C3FF"/>
</svg>
